<?xml version="1.0" encoding="UTF-8"?>
<svg version="1.1" xmlns="http://www.w3.org/2000/svg" width="400" height="400">
<path d="M0 0 C7.42831539 5.66849005 13.10846605 12.06454954 18 20 C18.433125 20.69738281 18.86625 21.39476562 19.3125 22.11328125 C22 26.62044271 22 26.62044271 22 29 C22.93005859 28.94779297 22.93005859 28.94779297 23.87890625 28.89453125 C33.11602254 28.61217398 42.21955406 30.07318469 51 33 C52.61897787 33.16844551 54.24252698 33.29482448 55.8671875 33.39453125 C72.14454496 34.51094996 86.82887004 35.63973746 98.890625 47.92578125 C103.18876328 53.0661223 106.22349856 58.87013204 109.16064453 64.859375 C112.25819406 71.03206284 115.58650979 72.91084638 121.6875 75.75 C134.08046195 81.86345869 142.76281624 90.1343146 148 103 C151.54017608 113.91401435 150.23916377 123.4217771 146 134 C144.28405697 137.27364348 142.32658435 140.13261154 140 143 C139.49855469 143.62519531 138.99710938 144.25039062 138.48046875 144.89453125 C131.58791817 152.59205124 121.05726918 157.24777096 110.8269043 158.20288086 C108.48452753 158.30503345 106.1570397 158.32752158 103.8125 158.3125 C102.9568042 158.31121094 102.1011084 158.30992187 101.21948242 158.30859375 C93.79154731 158.20065899 86.56275502 157.29945849 79.2434082 156.06762695 C70.64319293 154.63751122 63.78622359 154.3612828 55.4375 157.3125 C37.57777883 163.24743572 22.24423827 164.3087561 4 158.875 C-7.91144289 155.34458607 -16.97639032 155.95444398 -29.1875 158.0625 C-44.68818032 160.59125358 -61.05193427 160.67128696 -74.8125 152.3125 C-82.05353743 147.02813996 -87.69548204 140.34825591 -91 132 C-91.4125 130.96875 -91.825 129.9375 -92.25 128.875 C-94.70975263 116.16627807 -92.25508665 105.51114218 -87 94 C-88.051875 92.8553125 -88.051875 92.8553125 -89.125 91.6875 C-99.99293266 78.41815446 -103.39532623 61.94231011 -102.21875 45.15771484 C-100.47581594 27.9656934 -91.47701409 12.82684545 -78.37109375 1.78515625 C-54.98765787 -16.07672862 -24.15113621 -16.45462028 0 0 Z " fill="#D9D3D5" transform="translate(191,100)"/>
<path d="M0 0 C7.43093919 5.67049225 13.10148641 12.06653778 18 20 C18.433125 20.68578125 18.86625 21.3715625 19.3125 22.078125 C21.03218375 24.92038009 22 26.62328829 22 30 C21.2471875 30.13535156 20.494375 30.27070313 19.71875 30.41015625 C0.35755109 34.33408855 -15.39105735 43.4149124 -27.5625 59.25 C-34.59891928 67.18852431 -45.71923628 70.81783649 -55.4375 74.375 C-66.12640892 78.43729318 -77.49388641 84.24082961 -84 94 C-86.76617629 93.70362397 -87.88909754 93.11090246 -89.875 91.125 C-100.57110452 75.39543452 -104.69125012 57.84772971 -101.375 39.01953125 C-97.1160499 20.6718221 -85.94021224 5.94598201 -70 -4 C-47.89335939 -16.67007462 -20.66683291 -14.08069934 0 0 Z " fill="#F5BB3B" transform="translate(191,100)"/>
<path d="M0 0 C3.24952068 1.36821923 3.95552353 2.80617795 5.375 6 C7.54499613 14.48271213 7.22087126 24.06277633 3.375 32 C0.91029319 35.27323497 -1.62416806 37.54819924 -5.68359375 38.46484375 C-10.12114094 38.6745577 -13.24415748 37.81736877 -16.625 35 C-19.90586049 31.18710808 -21.31577055 28.17732886 -20.99609375 23.0625 C-19.51833704 14.84928377 -13.49470671 8.57275696 -7.625 3 C-3.23937908 0 -3.23937908 0 0 0 Z " fill="#8378FD" transform="translate(279.625,298)"/>
<path d="M0 0 C2.88236705 5.23821272 3.47015217 9.58999328 3.375 15.5 C3.38660156 16.22058594 3.39820313 16.94117188 3.41015625 17.68359375 C3.37533522 24.10227009 1.73607941 28.65118668 -2.125 33.875 C-6.01027437 36.74672454 -9.20610816 37.40222723 -14 37 C-18.41191832 35.70187788 -20.54159398 33.69455457 -23.0625 29.875 C-24.51660494 23.86469957 -23.56051948 19.11595584 -20.80078125 13.60546875 C-16.31237397 6.38712609 -9.26016937 -3.02372877 0 0 Z " fill="#8378FE" transform="translate(317,262)"/>
<path d="M0 0 C2.97324715 1.17365019 3.85870323 2.13235097 5.375 4.9375 C7.90461379 14.36606048 6.97679769 24.22826902 2.37890625 32.79296875 C0.72569927 35.20127373 -0.95201197 36.71731722 -3.73828125 37.62890625 C-8.82971523 38.44182428 -12.28196543 37.93626196 -16.625 34.9375 C-19.85142865 32.04483983 -20.48618746 28.61410953 -20.80859375 24.4296875 C-20.18237994 15.92916817 -13.63035488 8.49927753 -7.625 2.9375 C-3.19181321 -0.07599555 -3.19181321 -0.07599555 0 0 Z " fill="#8377FE" transform="translate(256.625,261.0625)"/>
<path d="M0 0 C3.22715564 1.35880237 3.83078546 2.89006375 5.375 6 C7.1543749 15.11183252 6.86506599 24.10879895 2.625 32.4375 C-0.47227877 35.96495637 -3.03837164 37.76316329 -7.80078125 38.19921875 C-12.23270683 38.05769508 -15.04373357 37.19579093 -18.1875 34 C-20.77713186 30.47261845 -21.41044865 27.58347025 -21.06640625 23.25 C-19.3062456 14.27785369 -12.40692885 6.27109589 -5.00390625 1.20703125 C-2.625 0 -2.625 0 0 0 Z " fill="#867BFE" transform="translate(134.625,261)"/>
<path d="M0 0 C3.52896275 1.57874649 3.97683593 3.49381494 5.375 7.0625 C5.81786123 10.19788604 5.83984898 13.2749634 5.8125 16.4375 C5.8424707 17.65566406 5.8424707 17.65566406 5.87304688 18.8984375 C5.8677876 25.46201185 4.28975758 30.71660017 -0.07250977 35.72412109 C-3.07259667 38.31045172 -6.63538699 38.5128622 -10.48828125 38.484375 C-14.40429961 37.71119404 -17.11216579 35.05605032 -19.625 32.0625 C-21.34444958 26.90415126 -21.40119955 22.14819945 -19.1875 17.1875 C-15.4916878 10.52183872 -8.31381466 0.19794797 0 0 Z " fill="#8479FE" transform="translate(219.625,297.9375)"/>
<path d="M0 0 C3.51503292 1.57251473 3.97238652 3.51821891 5.375 7.0625 C5.81397564 10.01107104 5.85163489 12.89764279 5.8125 15.875 C5.80492676 16.67309082 5.79735352 17.47118164 5.78955078 18.29345703 C5.62547132 24.15600425 5.05346624 29.27592437 1.375 34.0625 C-1.8212022 37.04077932 -4.32569521 38.29174226 -8.625 38.5625 C-12.83144782 38.33686678 -15.41495069 36.81397083 -18.625 34.0625 C-21.21230324 29.80939878 -21.24430762 25.91240249 -20.625 21.0625 C-18.34192506 13.17133494 -11.6587892 5.81581662 -5.00390625 1.2734375 C-2.625 0.0625 -2.625 0.0625 0 0 Z " fill="#877CFE" transform="translate(156.625,297.9375)"/>
<path d="M0 0 C3.22715564 1.35880237 3.83078546 2.89006375 5.375 6 C7.15299905 15.10478709 7.29461942 25.05807087 2 33 C-1.47269548 36.96879484 -2.82571495 37.80007944 -8 38.375 C-12.34850969 37.92515417 -14.29776253 36.79790424 -17.625 34 C-19.93258658 31.15397655 -20.57271935 29.38837053 -21.0625 25.75 C-19.94359553 16.15939028 -14.55437172 9.47364576 -7.625 3 C-3.22980349 0 -3.22980349 0 0 0 Z " fill="#8479FE" transform="translate(193.625,261)"/>
<path d="M0 0 C2.5 0.5625 2.5 0.5625 4.25 2.3125 C7.00777603 7.27649686 6.683259 12.34049953 6.6875 17.875 C6.69974609 18.70451172 6.71199219 19.53402344 6.72460938 20.38867188 C6.73672444 25.50526593 6.21677443 29.73127976 4.5 34.5625 C3.5 35.5625 3.5 35.5625 0.625 35.9375 C-0.40625 35.81375 -1.4375 35.69 -2.5 35.5625 C-5.26829432 31.97933507 -5.88314866 29.25141435 -5.8984375 24.78125 C-5.90230469 23.69199219 -5.90617188 22.60273437 -5.91015625 21.48046875 C-5.89855469 20.35253906 -5.88695312 19.22460938 -5.875 18.0625 C-5.88660156 16.93457031 -5.89820313 15.80664062 -5.91015625 14.64453125 C-5.90628906 13.55527344 -5.90242187 12.46601562 -5.8984375 11.34375 C-5.89505371 10.35439453 -5.89166992 9.36503906 -5.88818359 8.34570312 C-5.31945141 4.26800066 -4.24051912 0.9541168 0 0 Z " fill="#FDC245" transform="translate(153.5,47.4375)"/>
<path d="M0 0 C0.66 0.66 1.32 1.32 2 2 C1.9375 4.875 1.9375 4.875 1 8 C-2.88465357 11.58300433 -7.35947953 14.10731576 -11.9375 16.6875 C-12.97293945 17.29174805 -12.97293945 17.29174805 -14.02929688 17.90820312 C-17.98876449 20.1487739 -21.35896831 21.75320954 -26 22 C-28.375 20.5625 -28.375 20.5625 -30 19 C-29.75792579 15.44957826 -29.61008807 13.57042652 -26.95703125 11.08984375 C-23.38843282 8.56778277 -19.69616774 6.42493062 -15.875 4.3125 C-14.80185547 3.70825195 -14.80185547 3.70825195 -13.70703125 3.09179688 C-5.4237904 -1.52978704 -5.4237904 -1.52978704 0 0 Z " fill="#FEC33E" transform="translate(92,187)"/>
<path d="M0 0 C1.9375 1.6875 1.9375 1.6875 3 4 C2.13025453 8.84572474 -1.25729733 11.18885225 -5 14 C-7.27906663 15.51926896 -9.61861014 16.89811929 -12 18.25 C-12.88558594 18.7759375 -12.88558594 18.7759375 -13.7890625 19.3125 C-17.5039577 21.43997302 -20.71326114 22.72204143 -25 23 C-27.375 21.5625 -27.375 21.5625 -29 20 C-29 16.93770522 -28.74819162 14.78098906 -26.57421875 12.51171875 C-8.84584178 -1.10573022 -8.84584178 -1.10573022 0 0 Z " fill="#EFB231" transform="translate(243,98)"/>
<path d="M0 0 C2.6875 -0.3125 2.6875 -0.3125 6 0 C10.69998343 3.88057842 13.39740466 8.6471418 16.3125 13.9375 C16.76689453 14.72318359 17.22128906 15.50886719 17.68945312 16.31835938 C20.09050531 20.6330321 21.8299817 23.91927091 21 29 C19 31 19 31 16.25 31.625 C12.64918573 30.93253572 12.27382623 30.62267944 10.125 27.875 C9.05036037 26.2716148 8.01374942 24.64256097 7 23 C6.65582031 22.45875488 6.31164062 21.91750977 5.95703125 21.35986328 C4.82342153 19.56547842 3.72011986 17.75560221 2.625 15.9375 C2.26680176 15.3604834 1.90860352 14.7834668 1.53955078 14.18896484 C-0.9044563 9.97725718 -1.43696481 6.8243277 -1 2 C-0.67 1.34 -0.34 0.68 0 0 Z " fill="#FCC246" transform="translate(100,62)"/>
<path d="M0 0 C5.23268736 0.07233592 8.81775026 2.26302139 13.16796875 4.9765625 C13.90080078 5.40324219 14.63363281 5.82992187 15.38867188 6.26953125 C20.05323952 9.08761991 23.22914852 11.97799169 26.48046875 16.3515625 C24.60546875 21.2265625 24.60546875 21.2265625 23.48046875 22.3515625 C16.78651357 22.08380429 12.3795409 20.07328357 6.73046875 16.6015625 C5.98925781 16.17101562 5.24804688 15.74046875 4.484375 15.296875 C0.34824335 12.81668115 -2.89916826 10.52190148 -5.51953125 6.3515625 C-5.19343908 1.56887728 -4.84451054 0.48391337 0 0 Z " fill="#FCBE36" transform="translate(67.51953125,98.6484375)"/>
<path d="M0 0 C2.4375 0.625 2.4375 0.625 5 2 C6.83913221 8.14217359 4.70304111 11.49570334 1.828125 16.8828125 C-1.30396754 22.22343183 -4.6044011 27.6044011 -9 32 C-11.5 32.25 -11.5 32.25 -14 32 C-16 30 -16 30 -16.4140625 26.9453125 C-15.87315289 21.79136247 -13.94143524 18.30927062 -11.375 13.875 C-10.94832031 13.08996094 -10.52164063 12.30492188 -10.08203125 11.49609375 C-7.3081205 6.5858577 -4.55789022 3.3281955 0 0 Z " fill="#FCBD37" transform="translate(203,61)"/>
<path d="M0 0 C1.14210938 0.00064453 2.28421875 0.00128906 3.4609375 0.00195312 C4.64945313 0.01806641 5.83796875 0.03417969 7.0625 0.05078125 C8.84527344 0.04594727 8.84527344 0.04594727 10.6640625 0.04101562 C20.67845645 0.10318173 20.67845645 0.10318173 24.0625 2.36328125 C25.0625 4.73828125 25.0625 4.73828125 25.0625 7.36328125 C22.92406568 10.18726865 21.7195974 11.24837867 18.19335938 11.86499023 C17.10861328 11.86313721 16.02386719 11.86128418 14.90625 11.859375 C13.71902344 11.86001953 12.53179687 11.86066406 11.30859375 11.86132812 C10.07238281 11.84134766 8.83617187 11.82136719 7.5625 11.80078125 C6.32628906 11.80787109 5.09007813 11.81496094 3.81640625 11.82226562 C-6.51540547 11.74934839 -6.51540547 11.74934839 -9.9375 8.36328125 C-10.4375 5.86328125 -10.4375 5.86328125 -9.9375 3.36328125 C-6.77057949 0.24712461 -4.35237876 -0.01244113 0 0 Z " fill="#FCC03C" transform="translate(58.9375,147.63671875)"/>
<path d="M0 0 C3.1928158 1.55928214 3.80678716 3.03871577 5.08764648 6.26879883 C6.11837779 9.78050079 6.12104162 13.17641493 6.0625 16.8125 C6.07410156 17.53308594 6.08570313 18.25367188 6.09765625 18.99609375 C6.06283522 25.41477009 4.42357941 29.96368668 0.5625 35.1875 C-3.27243646 38.02201825 -6.57885977 38.6463372 -11.3125 38.3125 C-14.375 36.875 -14.375 36.875 -16.3125 35.3125 C-13.42421229 33.86835615 -10.78208511 34.33969126 -7.6015625 34.47265625 C-4.95509831 34.28749408 -3.51167949 33.79253852 -1.3125 32.3125 C4.46132757 24.32893596 3.05207772 13.60923187 2.6875 4.3125 C-1.8177894 4.81041077 -3.9663631 6.37692216 -7.25 9.4375 C-8.11496094 10.24316406 -8.97992188 11.04882812 -9.87109375 11.87890625 C-11.97221489 13.9733038 -13.91628899 16.0967514 -15.8125 18.375 C-17.05 19.8290625 -17.05 19.8290625 -18.3125 21.3125 C-18.9725 21.3125 -19.6325 21.3125 -20.3125 21.3125 C-18.38169078 12.94566004 -12.17252052 6.09319734 -5.234375 1.29296875 C-3.3125 0.3125 -3.3125 0.3125 0 0 Z " fill="#7B70EC" transform="translate(314.3125,260.6875)"/>
<path d="M0 0 C4.33175388 4.17704838 4.06773616 9.6385475 4.25 15.3125 C4.16756614 22.05375788 2.72081132 27.89762434 -1.125 33.5 C-4.51397582 36.44693549 -6.55659114 36.83057402 -10.9140625 37.1875 C-13 37 -13 37 -16 35 C-15.24074219 34.89042969 -14.48148438 34.78085937 -13.69921875 34.66796875 C-12.70535156 34.50941406 -11.71148437 34.35085938 -10.6875 34.1875 C-9.70136719 34.03667969 -8.71523437 33.88585937 -7.69921875 33.73046875 C-3.63378494 32.63027176 -2.61293367 30.90046548 -0.29296875 27.4921875 C1.52575355 22.57998891 1.08270359 18.28712827 0.6875 13.125 C0.62626953 12.15046875 0.56503906 11.1759375 0.50195312 10.171875 C0.34952021 7.77985072 0.18180871 5.38994082 0 3 C-5.50367498 3.12700788 -7.85499776 5.31952072 -11.50390625 9.06445312 C-12.12136719 9.72380859 -12.73882812 10.38316406 -13.375 11.0625 C-14.33599609 12.05733398 -14.33599609 12.05733398 -15.31640625 13.07226562 C-16.8895392 14.70409756 -18.44979234 16.34642396 -20 18 C-20.33 17.34 -20.66 16.68 -21 16 C-9.59963743 -3.04378748 -9.59963743 -3.04378748 0 0 Z " fill="#7369EA" transform="translate(259,262)"/>
<path d="M0 0 C0.99 0.99 1.98 1.98 3 3 C0.92940791 10.24707231 -5.80666902 13.73413525 -12 17.25 C-12.88558594 17.7759375 -12.88558594 17.7759375 -13.7890625 18.3125 C-17.5039577 20.43997302 -20.71326114 21.72204143 -25 22 C-27.375 20.5625 -27.375 20.5625 -29 19 C-28.67 17.68 -28.34 16.36 -28 15 C-27.01 15 -26.02 15 -25 15 C-25 15.66 -25 16.32 -25 17 C-23.02 16.67 -21.04 16.34 -19 16 C-18.67 15.01 -18.34 14.02 -18 13 C-15.41796875 11.2109375 -15.41796875 11.2109375 -12.1875 9.375 C-10.60001953 8.45847656 -10.60001953 8.45847656 -8.98046875 7.5234375 C-6 6 -6 6 -3.69140625 5.44921875 C-2.85416016 5.22685547 -2.85416016 5.22685547 -2 5 C-0.70339566 2.50965614 -0.70339566 2.50965614 0 0 Z " fill="#E4A92B" transform="translate(243,99)"/>
<path d="M0 0 C0.99 0.33 1.98 0.66 3 1 C4.82288898 8.33495803 1.66146862 12.75672658 -2 19 C-7.45864662 27.45864662 -7.45864662 27.45864662 -11 31 C-13.5 31.3125 -13.5 31.3125 -16 31 C-16.66 30.01 -17.32 29.02 -18 28 C-17.67 27.34 -17.34 26.68 -17 26 C-15.35 26 -13.7 26 -12 26 C-11.79375 25.21625 -11.5875 24.4325 -11.375 23.625 C-6.72340426 11.36170213 -6.72340426 11.36170213 -2 9 C-1.5720382 7.13690908 -1.5720382 7.13690908 -1.4375 5 C-1.09589041 1.09589041 -1.09589041 1.09589041 0 0 Z " fill="#E7A92A" transform="translate(205,62)"/>
<path d="M0 0 C0.763125 0.20625 1.52625 0.4125 2.3125 0.625 C3.0625 2.8125 3.0625 2.8125 3.3125 5.625 C0.1722739 10.78149149 -4.40678595 13.09307998 -9.5625 15.875 C-10.35269531 16.32101563 -11.14289063 16.76703125 -11.95703125 17.2265625 C-16.20014656 19.55639287 -19.77690777 21.21446817 -24.6875 21.625 C-25.0175 20.305 -25.3475 18.985 -25.6875 17.625 C-24.676875 17.233125 -23.66625 16.84125 -22.625 16.4375 C-19.80946067 15.25111347 -17.5430245 13.86209476 -15.125 12 C-12.06192584 9.69229933 -9.56838466 8.90896717 -5.6875 8.625 C-5.6875 7.965 -5.6875 7.305 -5.6875 6.625 C-5.0275 6.295 -4.3675 5.965 -3.6875 5.625 C-3.3575 4.635 -3.0275 3.645 -2.6875 2.625 C-3.6775 2.295 -4.6675 1.965 -5.6875 1.625 C-2.6875 -0.375 -2.6875 -0.375 0 0 Z " fill="#F1B02D" transform="translate(90.6875,187.375)"/>
<path d="M0 0 C2.5625 0.9375 2.5625 0.9375 4.1953125 3.4453125 C5.86590714 7.71248853 6.05964224 11.21245651 6 15.75 C5.99242676 16.54809082 5.98485352 17.34618164 5.97705078 18.16845703 C5.81310592 24.02619513 5.24638556 29.15871347 1.5625 33.9375 C-1.90662509 37.09825841 -3.619153 37.88470342 -8.3125 38.1875 C-9.34375 38.105 -10.375 38.0225 -11.4375 37.9375 C-10.4375 35.9375 -10.4375 35.9375 -7.375 34.8125 C-5.9209375 34.379375 -5.9209375 34.379375 -4.4375 33.9375 C-4.4375 33.2775 -4.4375 32.6175 -4.4375 31.9375 C-3.81875 31.421875 -3.2 30.90625 -2.5625 30.375 C3.29566514 23.65533999 1.776065 13.27839956 1.5625 4.9375 C-0.4175 4.2775 -2.3975 3.6175 -4.4375 2.9375 C-4.4375 2.2775 -4.4375 1.6175 -4.4375 0.9375 C-2.4375 -0.0625 -2.4375 -0.0625 0 0 Z " fill="#6F65D5" transform="translate(156.4375,298.0625)"/>
<path d="M0 0 C3.47473268 1.18649408 3.96377856 2.61917685 5.5625 5.875 C7.34049905 14.97978709 7.48211942 24.93307087 2.1875 32.875 C-1.50927033 37.09988038 -1.50927033 37.09988038 -4.4375 37.875 C-6.76953812 37.9527346 -9.10589059 37.96467728 -11.4375 37.875 C-11.4375 37.215 -11.4375 36.555 -11.4375 35.875 C-10.54998047 35.72417969 -10.54998047 35.72417969 -9.64453125 35.5703125 C-5.93718351 34.68732266 -3.27190717 33.83513976 -0.7265625 30.90625 C4.08779277 22.3350279 3.27584248 13.25625225 1.5625 3.875 C-3.25944643 4.20004259 -3.25944643 4.20004259 -7.375 6.4375 C-7.725625 6.911875 -8.07625 7.38625 -8.4375 7.875 C-9.4275 7.545 -10.4175 7.215 -11.4375 6.875 C-10.31470538 5.89330524 -9.18918527 4.91472702 -8.0625 3.9375 C-7.12277344 3.11958984 -7.12277344 3.11958984 -6.1640625 2.28515625 C-3.89931026 0.43543779 -2.96144326 -0.15186889 0 0 Z " fill="#7268E7" transform="translate(193.4375,261.125)"/>
<path d="M0 0 C4.24994263 -0.05805933 8.49978324 -0.09361654 12.75 -0.125 C13.9565625 -0.14175781 15.163125 -0.15851563 16.40625 -0.17578125 C17.56640625 -0.18222656 18.7265625 -0.18867188 19.921875 -0.1953125 C20.99018555 -0.20578613 22.05849609 -0.21625977 23.15917969 -0.22705078 C26.01478133 0.00118139 27.63949708 0.40600978 30 2 C31 4.375 31 4.375 31 7 C28.83959139 9.87748041 27.66285002 10.89736089 24.06738281 11.45410156 C22.95717773 11.4331543 21.84697266 11.41220703 20.703125 11.390625 C19.49785156 11.37773437 18.29257813 11.36484375 17.05078125 11.3515625 C15.79652344 11.31804687 14.54226562 11.28453125 13.25 11.25 C11.98027344 11.23195312 10.71054687 11.21390625 9.40234375 11.1953125 C6.26746923 11.14817153 3.1341144 11.08237664 0 11 C-0.33 10.01 -0.66 9.02 -1 8 C11.375 7.505 11.375 7.505 24 7 C24.33 5.68 24.66 4.36 25 3 C19.52140877 2.12489617 14.10142201 1.70975966 8.5625 1.4375 C7.73556641 1.39431641 6.90863281 1.35113281 6.05664062 1.30664062 C4.03790451 1.20161967 2.01897049 1.10041441 0 1 C0 0.67 0 0.34 0 0 Z " fill="#E4A432" transform="translate(53,148)"/>
<path d="M0 0 C2.3125 0.1875 2.3125 0.1875 5 1 C9.52325576 7.05285916 9.38764901 14.56626448 8.75 21.859375 C7.8742971 27.01976712 6.52073061 30.99027902 3 35 C-1.11612617 37.68443011 -4.118794 38.34865757 -9 38 C-9 37.34 -9 36.68 -9 36 C-8.38511719 35.85304688 -7.77023438 35.70609375 -7.13671875 35.5546875 C-1.78985774 34.11141596 -1.78985774 34.11141596 2 30.25 C3.95855019 23.88471187 4.1359401 17.65516172 4.0625 11.0625 C4.05798828 10.28326172 4.05347656 9.50402344 4.04882812 8.70117188 C4.03716908 6.80074732 4.01923877 4.90036294 4 3 C2.35 2.67 0.7 2.34 -1 2 C-0.67 1.34 -0.34 0.68 0 0 Z " fill="#6D63DF" transform="translate(132,261)"/>
<path d="M0 0 C2.5625 0.9375 2.5625 0.9375 4.1953125 3.41015625 C5.91889682 7.8570038 6.04084474 11.58936255 6 16.3125 C6.0299707 17.53066406 6.0299707 17.53066406 6.06054688 18.7734375 C6.0552876 25.33701185 4.47725758 30.59160017 0.11499023 35.59912109 C-2.59904417 37.93885007 -5.20297179 38.05609882 -8.625 38 C-9.883125 37.979375 -11.14125 37.95875 -12.4375 37.9375 C-12.1075 37.2775 -11.7775 36.6175 -11.4375 35.9375 C-10.01513956 35.49030757 -8.57355316 35.10324782 -7.125 34.75 C-3.68214237 33.66076523 -1.82021363 32.81602414 0.0625 29.6875 C3.41680451 22.33852376 2.93909307 13.85703065 2.5625 5.9375 C2.2325 5.2775 1.9025 4.6175 1.5625 3.9375 C-1.7375 4.2675 -5.0375 4.5975 -8.4375 4.9375 C-3.57067191 -0.09155569 -3.57067191 -0.09155569 0 0 Z " fill="#756AE8" transform="translate(219.4375,298.0625)"/>
<path d="M0 0 C6.14457316 0.41767033 10.06856655 2.42389489 15.1875 5.75 C15.88552734 6.18054688 16.58355469 6.61109375 17.30273438 7.0546875 C21.3081678 9.60048153 24.2467794 12.0444686 27 16 C25.125 20.875 25.125 20.875 24 22 C22.33382885 22.04063832 20.66611905 22.042721 19 22 C18.34 20.68 17.68 19.36 17 18 C18.65 18 20.3 18 22 18 C22 17.01 22 16.02 22 15 C21.26910156 14.731875 20.53820312 14.46375 19.78515625 14.1875 C17.0606426 13.02585603 14.86328902 11.6875054 12.4375 10 C10.27538222 8.50113152 8.23716791 7.11359779 5.86328125 5.9765625 C3.17314578 4.56663825 1.77790412 2.41286987 0 0 Z " fill="#F4AD25" transform="translate(67,99)"/>
<path d="M0 0 C4.53555939 0.51922229 4.53555939 0.51922229 6.5546875 2.609375 C8.0654995 5.05885718 9.55856245 7.50866924 11 10 C11.639375 11.08152344 12.27875 12.16304687 12.9375 13.27734375 C18.66238196 23.35359768 18.66238196 23.35359768 18 29 C17.34 29.66 16.68 30.32 16 31 C14.68 31 13.36 31 12 31 C12 30.34 12 29.68 12 29 C11.34 29 10.68 29 10 29 C10 28.34 10 27.68 10 27 C11.32 27 12.64 27 14 27 C14 24.69 14 22.38 14 20 C13.01 20 12.02 20 11 20 C7.11939654 16.24874999 5.26851568 11.48917136 3.1484375 6.62109375 C2.16359787 4.37338153 1.11965692 2.18281739 0 0 Z " fill="#EEAB28" transform="translate(103,62)"/>
<path d="M0 0 C0.66 0.33 1.32 0.66 2 1 C4.17466849 9.48120713 3.84349356 19.06768351 0 27 C-2.5111377 30.33489715 -5.02568847 32.68245339 -9.234375 33.359375 C-11.4375 33.375 -11.4375 33.375 -15 33 C-15 32.34 -15 31.68 -15 31 C-13.14375 30.6596875 -13.14375 30.6596875 -11.25 30.3125 C-8.16128666 29.52667894 -7.04508243 29.04152329 -4.625 26.8125 C-1.19156992 20.87002486 -0.65053014 14.76132651 -0.375 8.0625 C-0.33632813 7.28326172 -0.29765625 6.50402344 -0.2578125 5.70117188 C-0.16455873 3.80112621 -0.08124038 1.90059722 0 0 Z " fill="#7B70EB" transform="translate(283,303)"/>
<path d="M0 0 C3.59111692 3.24358947 4.81176644 5.29544751 5.14526367 10.0871582 C5.16996849 12.49574562 5.18565423 14.90377657 5.1875 17.3125 C5.19974609 18.14201172 5.21199219 18.97152344 5.22460938 19.82617188 C5.23672444 24.94276593 4.71677443 29.16877976 3 34 C2 35 2 35 -1.0625 35.0625 C-2.031875 35.041875 -3.00125 35.02125 -4 35 C-2.74458443 32.48916886 -1.49936512 32.12874554 1 31 C1.02923559 27.14584948 1.04687777 23.29172785 1.0625 19.4375 C1.07087891 18.35146484 1.07925781 17.26542969 1.08789062 16.14648438 C1.10459218 10.65167389 0.98582259 5.41038065 0 0 Z " fill="#C9953E" transform="translate(155,48)"/>
<path d="M0 0 C-2.41381346 1.31799019 -4.83077596 2.62950918 -7.25 3.9375 C-7.93191406 4.31068359 -8.61382812 4.68386719 -9.31640625 5.06835938 C-9.98027344 5.42607422 -10.64414063 5.78378906 -11.328125 6.15234375 C-11.9355957 6.48226318 -12.54306641 6.81218262 -13.16894531 7.15209961 C-15 8 -15 8 -17.15527344 8.46313477 C-17.7640332 8.64030029 -18.37279297 8.81746582 -19 9 C-20.24714403 11.40952023 -20.24714403 11.40952023 -21 14 C-21.33 14.66 -21.66 15.32 -22 16 C-21.01 16.33 -20.02 16.66 -19 17 C-19.78375 17.103125 -20.5675 17.20625 -21.375 17.3125 C-24.33045181 17.77595022 -24.33045181 17.77595022 -26 21 C-26.66 20.34 -27.32 19.68 -28 19 C-27.9375 16.125 -27.9375 16.125 -27 13 C-23.07761337 9.36151945 -18.52708496 6.88428103 -13.875 4.3125 C-12.80185547 3.70825195 -12.80185547 3.70825195 -11.70703125 3.09179688 C-3.85970814 -1.28656938 -3.85970814 -1.28656938 0 0 Z " fill="#FDC23D" transform="translate(90,187)"/>
<path d="M0 0 C0.66 1.32 1.32 2.64 2 4 C-1.80037061 9.58179433 -6.21114289 12.60758486 -12 15.875 C-12.68835938 16.2680835 -13.37671875 16.66116699 -14.0859375 17.06616211 C-18.01973183 19.21439438 -21.43967501 20.73768042 -26 21 C-28.375 19.5625 -28.375 19.5625 -30 18 C-29.67 16.68 -29.34 15.36 -29 14 C-28.34 15.32 -27.68 16.64 -27 18 C-23.51605997 18.29200653 -21.57375005 18.36460891 -18.578125 16.4609375 C-17.80984375 15.77257812 -17.0415625 15.08421875 -16.25 14.375 C-12.04696985 10.76511371 -7.8214928 8.01452036 -2.93359375 5.421875 C-0.82506145 4.14885565 -0.82506145 4.14885565 -0.22265625 1.828125 C-0.14917969 1.22484375 -0.07570312 0.6215625 0 0 Z " fill="#C99225" transform="translate(244,100)"/>
<path d="M0 0 C0.75 1.6875 0.75 1.6875 1 4 C-2.17780139 9.14873285 -6.70530638 11.46053688 -11.875 14.25 C-13.06029297 14.91902344 -13.06029297 14.91902344 -14.26953125 15.6015625 C-18.51264656 17.93139287 -22.08940777 19.58946817 -27 20 C-26.67 19.34 -26.34 18.68 -26 18 C-25.38125 17.87625 -24.7625 17.7525 -24.125 17.625 C-21.84574909 17.19480017 -21.84574909 17.19480017 -20.6875 15.125 C-18.7465951 12.68089753 -16.89857811 11.96539777 -14.0390625 10.83984375 C-8.16712507 8.42132546 -2.62302806 6.1203988 0 0 Z " fill="#CA9232" transform="translate(93,189)"/>
<path d="M0 0 C0.66 0.66 1.32 1.32 2 2 C1.85046197 8.20976362 -0.61638731 12.4795281 -3.8125 17.6875 C-4.25142578 18.43322266 -4.69035156 19.17894531 -5.14257812 19.94726562 C-7.40163641 23.71012497 -9.54743277 27.20436946 -13 30 C-15.75 30.25 -15.75 30.25 -18 30 C-17 28 -17 28 -14.6953125 26.765625 C-11.31182644 24.54919645 -9.93117103 22.21726879 -7.875 18.75 C-7.21242187 17.65171875 -6.54984375 16.5534375 -5.8671875 15.421875 C-3.15962174 10.45989257 -0.85502372 5.64315656 0 0 Z " fill="#C3913F" transform="translate(207,63)"/>
<path d="M0 0 C8.24012273 0.65920982 12.39208268 4.24051735 18 10 C18.99 10.66 19.98 11.32 21 12 C20.67 12.99 20.34 13.98 20 15 C19.26394531 14.52949219 18.52789062 14.05898437 17.76953125 13.57421875 C16.79371094 12.95160156 15.81789063 12.32898438 14.8125 11.6875 C13.84957031 11.07261719 12.88664062 10.45773438 11.89453125 9.82421875 C10.04578102 8.65908197 8.17591277 7.52638665 6.28125 6.4375 C3.52022239 4.69767438 1.91159617 2.61959476 0 0 Z " fill="#F6B62F" transform="translate(67,99)"/>
<path d="M0 0 C0.33 0 0.66 0 1 0 C2.28222934 5.70326276 2.29918268 11.30085169 2.375 17.125 C2.41238281 18.22199219 2.44976562 19.31898437 2.48828125 20.44921875 C2.49988281 21.49980469 2.51148438 22.55039063 2.5234375 23.6328125 C2.54325684 24.59074707 2.56307617 25.54868164 2.58349609 26.53564453 C2 29 2 29 -0.53271484 30.83544922 C-1.34691895 31.21975098 -2.16112305 31.60405273 -3 32 C-3.33 30.68 -3.66 29.36 -4 28 C-3.01 28 -2.02 28 -1 28 C-0.67 18.76 -0.34 9.52 0 0 Z " fill="#F0AE29" transform="translate(155,50)"/>
<path d="M0 0 C5.11343777 1.20316183 7.94498966 2.55324121 12 6 C13.23911465 6.70693079 14.48975906 7.39395755 15.75 8.0625 C19 10 19 10 20 13 C16.05879291 12.43697042 13.2491277 11.3208055 10 9 C10 8.34 10 7.68 10 7 C9.443125 6.896875 8.88625 6.79375 8.3125 6.6875 C5.50540095 5.85295704 3.39400391 4.68227302 1 3 C0.67 2.01 0.34 1.02 0 0 Z " fill="#FFC843" transform="translate(68,103)"/>
<path d="M0 0 C0.33 0 0.66 0 1 0 C1.08797281 3.18732254 1.14071341 6.37432788 1.1875 9.5625 C1.22520508 10.90538086 1.22520508 10.90538086 1.26367188 12.27539062 C1.32653278 17.995733 0.75003573 21.95162524 -2 27 C-5.19354839 30 -5.19354839 30 -8 30 C-8 30.66 -8 31.32 -8 32 C-10.97 32.495 -10.97 32.495 -14 33 C-13 31 -13 31 -9.9375 29.875 C-8.4834375 29.441875 -8.4834375 29.441875 -7 29 C-7 28.34 -7 27.68 -7 27 C-6.38125 26.484375 -5.7625 25.96875 -5.125 25.4375 C0.53373131 18.94660232 -0.44009079 8.14167969 0 0 Z " fill="#7469F0" transform="translate(159,303)"/>
<path d="M0 0 C0 0.66 0 1.32 0 2 C-1.794375 2.37125 -1.794375 2.37125 -3.625 2.75 C-7.74971796 3.78657834 -10.50540078 5.53322408 -14 8 C-16.81934383 9.54779539 -19.65991036 11.0481137 -22.51171875 12.53515625 C-24.74205726 13.84814988 -26.29432694 15.07755244 -28 17 C-27.63646045 14.39370105 -27.30154789 13.26239475 -25.28515625 11.5078125 C-24.55167969 11.05148438 -23.81820312 10.59515625 -23.0625 10.125 C-22.25683594 9.61839844 -21.45117188 9.11179687 -20.62109375 8.58984375 C-19.75613281 8.06519531 -18.89117187 7.54054688 -18 7 C-17.10410156 6.44441406 -16.20820313 5.88882813 -15.28515625 5.31640625 C-10.02530262 2.09561482 -6.3091522 -0.17051763 0 0 Z " fill="#E7AF42" transform="translate(243,98)"/>
<path d="M0 0 C0 0.66 0 1.32 0 2 C-0.72960937 2.37769531 -1.45921875 2.75539062 -2.2109375 3.14453125 C-6.013757 5.67441817 -7.51114071 8.71854694 -9.625 12.6875 C-10.0065625 13.37005859 -10.388125 14.05261719 -10.78125 14.75585938 C-13.31271609 19.37796729 -15.24882869 24.03091197 -17 29 C-17.33 29 -17.66 29 -18 29 C-18.72167753 22.92425542 -16.29214242 19.03205102 -13.375 13.9375 C-12.94832031 13.14794922 -12.52164063 12.35839844 -12.08203125 11.54492188 C-5.59829474 0 -5.59829474 0 0 0 Z " fill="#F5BB49" transform="translate(205,61)"/>
<path d="M0 0 C0.70125 0.2475 1.4025 0.495 2.125 0.75 C1.54363281 1.01167969 0.96226562 1.27335937 0.36328125 1.54296875 C-2.0017634 2.81835932 -3.71183549 4.24778575 -5.6875 6.0625 C-9.25232631 9.25947369 -12.93084662 12.03839455 -16.875 14.75 C-13.93229957 8.42041794 -7.6911512 -0.66879576 0 0 Z " fill="#6E66DD" transform="translate(313.875,261.25)"/>
<path d="M0 0 C0.433125 0.598125 0.86625 1.19625 1.3125 1.8125 C3.81477071 5.05618426 6.12756453 7.23960901 9.7578125 9.15625 C10.46550781 9.53910156 11.17320313 9.92195313 11.90234375 10.31640625 C13.39020465 11.10871179 14.87980902 11.89775154 16.37109375 12.68359375 C17.07621094 13.06644531 17.78132813 13.44929688 18.5078125 13.84375 C19.15379395 14.18599609 19.79977539 14.52824219 20.46533203 14.88085938 C22 16 22 16 23 19 C18.76595202 17.4333219 14.86268571 15.39775834 10.9375 13.1875 C10.32583984 12.85685547 9.71417969 12.52621094 9.08398438 12.18554688 C5.16654361 9.97907483 2.40460611 7.81978577 0 4 C0 2.68 0 1.36 0 0 Z " fill="#EEB550" transform="translate(62,101)"/>
<path d="M0 0 C-1 2 -1 2 -3.9375 3.5 C-10.36759652 7.00853814 -15.96491062 12.94736594 -20 19 C-20.66 19 -21.32 19 -22 19 C-21.67 17.68 -21.34 16.36 -21 15 C-20.34 15 -19.68 15 -19 15 C-18.77183594 14.43539063 -18.54367187 13.87078125 -18.30859375 13.2890625 C-16.6444723 10.37809185 -14.57851735 8.58436619 -12.0625 6.375 C-11.18722656 5.59898437 -10.31195313 4.82296875 -9.41015625 4.0234375 C-4.61776062 0 -4.61776062 0 0 0 Z " fill="#7369F2" transform="translate(316,263)"/>
<path d="M0 0 C0.33 0.99 0.66 1.98 1 3 C-1.40794308 4.53641144 -3.82468647 6.05396395 -6.25 7.5625 C-6.93191406 8.00013672 -7.61382812 8.43777344 -8.31640625 8.88867188 C-8.98027344 9.29794922 -9.64414063 9.70722656 -10.328125 10.12890625 C-11.23933105 10.70233765 -11.23933105 10.70233765 -12.16894531 11.28735352 C-14.47988352 12.18677067 -15.69932794 11.80168206 -18 11 C-12.16769769 6.98770692 -6.24430328 3.33619986 0 0 Z " fill="#F7BB43" transform="translate(238,102)"/>
<path d="M0 0 C1 3 1 3 0.22729492 4.90112305 C-0.18415771 5.59761963 -0.59561035 6.29411621 -1.01953125 7.01171875 C-1.46490234 7.76904297 -1.91027344 8.52636719 -2.36914062 9.30664062 C-2.84544922 10.09232422 -3.32175781 10.87800781 -3.8125 11.6875 C-4.27720703 12.48478516 -4.74191406 13.28207031 -5.22070312 14.10351562 C-7.81766935 18.45911608 -7.81766935 18.45911608 -9 20 C-9.66 20 -10.32 20 -11 20 C-9.62825451 15.26711896 -7.56963615 11.31698731 -4.9375 7.1875 C-4.57333984 6.60291016 -4.20917969 6.01832031 -3.83398438 5.41601562 C-1.17597535 1.17597535 -1.17597535 1.17597535 0 0 Z " fill="#FEC245" transform="translate(202,67)"/>
<path d="M0 0 C-6.89715536 5.88183807 -6.89715536 5.88183807 -11.5 6.375 C-12.325 6.25125 -13.15 6.1275 -14 6 C-14.66 4.68 -15.32 3.36 -16 2 C-15.01 1.67 -14.02 1.34 -13 1 C-13 1.66 -13 2.32 -13 3 C-12.22914063 2.69964844 -11.45828125 2.39929688 -10.6640625 2.08984375 C-9.66117188 1.70957031 -8.65828125 1.32929687 -7.625 0.9375 C-6.62726563 0.55464844 -5.62953125 0.17179687 -4.6015625 -0.22265625 C-2 -1 -2 -1 0 0 Z " fill="#D59822" transform="translate(231,113)"/>
<path d="M0 0 C0.66 1.32 1.32 2.64 2 4 C-0.97 6.97 -3.94 9.94 -7 13 C-7.33 12.34 -7.66 11.68 -8 11 C-7.04454634 9.53977837 -6.08553322 8.08188532 -5.125 6.625 C-4.59132812 5.81289063 -4.05765625 5.00078125 -3.5078125 4.1640625 C-2 2 -2 2 0 0 Z " fill="#776EF1" transform="translate(246,267)"/>
<path d="M0 0 C-1.86779121 1.15754698 -3.74459249 2.30056261 -5.625 3.4375 C-6.66914063 4.07558594 -7.71328125 4.71367188 -8.7890625 5.37109375 C-12.00140887 7.00071472 -14.41938469 7.75586714 -18 8 C-20.375 6.5625 -20.375 6.5625 -22 5 C-21.67 3.68 -21.34 2.36 -21 1 C-20.34 2.32 -19.68 3.64 -19 5 C-15.2478883 5.34903365 -13.53561616 5.39191427 -10.4375 3.125 C-9.2309375 2.073125 -9.2309375 2.073125 -8 1 C-3.6 -1.2 -3.6 -1.2 0 0 Z " fill="#B58033" transform="translate(236,113)"/>
<path d="M0 0 C0 0.66 0 1.32 0 2 C-1.051875 2.268125 -2.10375 2.53625 -3.1875 2.8125 C-6.57519246 3.8676829 -9.07089567 5.04726378 -12 7 C-12 6.01 -12 5.02 -12 4 C-7.62526784 0.08576596 -5.72620217 -1.35620578 0 0 Z " fill="#7269EE" transform="translate(282,299)"/>
<path d="M0 0 C2.52775351 3.79163027 2.22443035 6.80874031 2.125 11.1875 C2.11597656 11.93708984 2.10695312 12.68667969 2.09765625 13.45898438 C2.07412578 15.30612654 2.03825561 17.15310412 2 19 C1.67 19 1.34 19 1 19 C1 14.05 1 9.1 1 4 C-1.64 3.34 -4.28 2.68 -7 2 C-7 1.34 -7 0.68 -7 0 C-4.27584084 -1.36207958 -2.87220643 -0.86166193 0 0 Z " fill="#6F65E6" transform="translate(159,299)"/>
<path d="M0 0 C6 8 6 8 6 12 C3.69 12.33 1.38 12.66 -1 13 C-0.34 12.67 0.32 12.34 1 12 C0.67 8.04 0.34 4.08 0 0 Z " fill="#CC9B45" transform="translate(207,118)"/>
<path d="M0 0 C-2.4335567 1.3410005 -4.87135301 2.67294856 -7.3125 4 C-8.00279297 4.3815625 -8.69308594 4.763125 -9.40429688 5.15625 C-14.66015625 8 -14.66015625 8 -18 8 C-15.42639878 5.0332097 -12.48295779 3.50855222 -9 1.75 C-7.948125 1.20859375 -6.89625 0.6671875 -5.8125 0.109375 C-3 -1 -3 -1 0 0 Z " fill="#F4B847" transform="translate(90,187)"/>
<path d="M0 0 C1.32 1.32 2.64 2.64 4 4 C2.125 8.875 2.125 8.875 1 10 C-1.4375 10.25 -1.4375 10.25 -4 10 C-4.66 9.01 -5.32 8.02 -6 7 C-4.02 7 -2.04 7 0 7 C0 4.69 0 2.38 0 0 Z " fill="#DC9631" transform="translate(90,111)"/>
<path d="M0 0 C0.66 0.33 1.32 0.66 2 1 C2 4.96 2 8.92 2 13 C1.01 13.495 1.01 13.495 0 14 C-1.17635297 11.64729407 -1.13359359 10.179248 -1.125 7.5625 C-1.12757812 6.78003906 -1.13015625 5.99757813 -1.1328125 5.19140625 C-1 3 -1 3 0 0 Z " fill="#9B93FF" transform="translate(115,279)"/>
<path d="M0 0 C3.6578722 4.19977919 6.79365864 8.87201939 9 14 C8.67 14.66 8.34 15.32 8 16 C7.67 15.01 7.34 14.02 7 13 C6.34 13 5.68 13 5 13 C4.15615325 11.58957044 3.32530504 10.17135868 2.5 8.75 C2.0359375 7.96109375 1.571875 7.1721875 1.09375 6.359375 C0 4 0 4 0 0 Z " fill="#D09A38" transform="translate(109,65)"/>
<path d="M0 0 C0.66 0.33 1.32 0.66 2 1 C-1.57446809 4.82978723 -1.57446809 4.82978723 -4.1875 5.875 C-6.37211306 6.93674268 -6.37211306 6.93674268 -6.75 10.125 C-6.8325 11.07375 -6.915 12.0225 -7 13 C-7.66 12.67 -8.32 12.34 -9 12 C-8.73610801 8.1295842 -8.49556303 6.46948077 -5.625 3.75 C-3.75 2.5 -1.875 1.25 0 0 Z " fill="#FAC455" transform="translate(71,194)"/>
<path d="M0 0 C0.33 0.99 0.66 1.98 1 3 C-2.83325617 5.70582788 -5.32538149 6.32613618 -10 6 C-10 5.34 -10 4.68 -10 4 C-9.36191406 3.79503906 -8.72382812 3.59007812 -8.06640625 3.37890625 C-7.24011719 3.10949219 -6.41382812 2.84007812 -5.5625 2.5625 C-4.73878906 2.29566406 -3.91507813 2.02882813 -3.06640625 1.75390625 C-1.03780412 1.17844506 -1.03780412 1.17844506 0 0 Z " fill="#7569EE" transform="translate(133,293)"/>
<path d="M0 0 C3.73959528 3.73959528 3.05603539 8.85200021 3.0625 13.875 C3.04655506 15.58338595 3.02735618 17.29175867 3 19 C2.67 19 2.34 19 2 19 C1.66340751 16.58374679 1.33061612 14.16707192 1 11.75 C0.85691406 10.72712891 0.85691406 10.72712891 0.7109375 9.68359375 C0.2654774 6.40628012 0 3.31615847 0 0 Z " fill="#7A72E4" transform="translate(260,264)"/>
<path d="M0 0 C1.65 0.33 3.3 0.66 5 1 C4.50168276 4.68754757 3.89932357 6.60490662 1 9 C0.34 8.67 -0.32 8.34 -1 8 C-0.34 7.34 0.32 6.68 1 6 C1.6425235 3.93125966 1.6425235 3.93125966 2 2 C1.34 2 0.68 2 0 2 C0 1.34 0 0.68 0 0 Z " fill="#E79F23" transform="translate(88,187)"/>
<path d="M0 0 C0 3 0 3 -1.1875 4.625 C-3.41406801 6.31412056 -5.25851328 6.62952882 -8 7 C-8.33 6.34 -8.66 5.68 -9 5 C-8.67 4.34 -8.34 3.68 -8 3 C-5.67793475 2.29508733 -3.34406932 1.62787571 -1 1 C-0.67 0.67 -0.34 0.34 0 0 Z " fill="#E29F25" transform="translate(196,85)"/>
<path d="M0 0 C2.27183419 2.46115371 2.9736202 3.73620199 3.3125 7.125 C3 10 3 10 1 12 C-1.125 11.625 -1.125 11.625 -3 11 C-2.01 10.34 -1.02 9.68 0 9 C0.36362818 6.79274927 0.36362818 6.79274927 0.1875 4.375 C0.14689453 3.14910156 0.14689453 3.14910156 0.10546875 1.8984375 C0.07066406 1.27195312 0.03585938 0.64546875 0 0 Z " fill="#D49131" transform="translate(118,81)"/>
<path d="M0 0 C4.75 1.875 4.75 1.875 7 3 C7 3.66 7 4.32 7 5 C7.66 5.33 8.32 5.66 9 6 C7.68 6.33 6.36 6.66 5 7 C0 1.125 0 1.125 0 0 Z " fill="#F2BF66" transform="translate(99,187)"/>
<path d="M0 0 C5.62541841 0.45003347 8.61487125 1.68441485 13 5 C10 6 10 6 7.51953125 5.00390625 C6.62621094 4.52824219 5.73289062 4.05257812 4.8125 3.5625 C3.91144531 3.08941406 3.01039062 2.61632812 2.08203125 2.12890625 C1.39496094 1.75636719 0.70789063 1.38382812 0 1 C0 0.67 0 0.34 0 0 Z " fill="#DFA83D" transform="translate(67,99)"/>
<path d="M0 0 C-0.556875 0.268125 -1.11375 0.53625 -1.6875 0.8125 C-4.06968511 1.99482339 -4.06968511 1.99482339 -6.5 3.5625 C-8.7421556 4.85173947 -10.48078813 5.53347928 -13 6 C-8.68466989 0.39007086 -7.09208573 -0.13133492 0 0 Z " fill="#776CF0" transform="translate(195,263)"/>
<path d="M0 0 C0.66 1.32 1.32 2.64 2 4 C1.09515208 5.15518918 0.1755794 6.29885406 -0.75 7.4375 C-1.51570312 8.39462891 -1.51570312 8.39462891 -2.296875 9.37109375 C-4.19667629 11.18810554 -5.43586908 11.60423197 -8 12 C-7.59007812 11.55269531 -7.18015625 11.10539062 -6.7578125 10.64453125 C-3.74359926 7.26255515 -1.33949455 4.420332 0 0 Z " fill="#C08E39" transform="translate(244,100)"/>
<path d="M0 0 C3.63 0 7.26 0 11 0 C11 0.66 11 1.32 11 2 C7.37 2.33 3.74 2.66 0 3 C0 2.01 0 1.02 0 0 Z " fill="#E8B047" transform="translate(148,88)"/>
<path d="M0 0 C0.75 1.75 0.75 1.75 1 4 C-0.625 6.25 -0.625 6.25 -3 8 C-5.75 8.25 -5.75 8.25 -8 8 C-7 6 -7 6 -4.5625 4.5625 C-1.7644028 3.10335955 -1.7644028 3.10335955 0 0 Z " fill="#C0852E" transform="translate(197,85)"/>
<path d="M0 0 C0.625 1.8125 0.625 1.8125 1 4 C0.01 5.485 0.01 5.485 -1 7 C-4.125 7.1875 -4.125 7.1875 -7 7 C-5.62736683 4.25473365 -3.59407253 3.55644352 -1 2 C-0.67 1.34 -0.34 0.68 0 0 Z " fill="#CB8933" transform="translate(158,76)"/>
<path d="M0 0 C4.875 0.875 4.875 0.875 6 2 C6.04063832 3.66617115 6.042721 5.33388095 6 7 C5.67 6.34 5.34 5.68 5 5 C4.34 4.690625 3.68 4.38125 3 4.0625 C1 3 1 3 0 0 Z " fill="#E3AA34" transform="translate(103,62)"/>
<path d="M0 0 C0.75 1.6875 0.75 1.6875 1 4 C-1.13381449 7.2769294 -2.25018012 8.75006004 -6 10 C-6 9.01 -6 8.02 -6 7 C-4.34997172 5.64613064 -2.6825613 4.31321858 -1 3 C-0.67 2.01 -0.34 1.02 0 0 Z " fill="#C48732" transform="translate(93,189)"/>
<path d="M0 0 C4.43090471 1.20842856 6.98112756 2.51668565 10 6 C5.16743695 5.58578031 3.17320782 3.53586014 0 0 Z " fill="#DFA539" transform="translate(80,105)"/>
<path d="M0 0 C3.3 1.65 6.6 3.3 10 5 C9.67 5.66 9.34 6.32 9 7 C6.03 5.35 3.06 3.7 0 2 C0 1.34 0 0.68 0 0 Z " fill="#DDA740" transform="translate(177,93)"/>
<path d="M0 0 C0.33 0.99 0.66 1.98 1 3 C1.66 3 2.32 3 3 3 C3 5.31 3 7.62 3 10 C0.9375 7.8125 0.9375 7.8125 -1 5 C-0.75 2.1875 -0.75 2.1875 0 0 Z " fill="#FCC869" transform="translate(96,176)"/>
<path d="M0 0 C2.97 0.495 2.97 0.495 6 1 C6 1.33 6 1.66 6 2 C3.36 2.33 0.72 2.66 -2 3 C-1.34 2.01 -0.68 1.02 0 0 Z " fill="#776EF3" transform="translate(213,300)"/>
<path d="M0 0 C2.6875 0.3125 2.6875 0.3125 5 1 C5 1.66 5 2.32 5 3 C2.36 3 -0.28 3 -3 3 C-1.8125 1.4375 -1.8125 1.4375 0 0 Z " fill="#6D64E4" transform="translate(277,298)"/>
<path d="M0 0 C0.33 0.99 0.66 1.98 1 3 C0.00390625 4.82421875 0.00390625 4.82421875 -1.4375 6.6875 C-1.91058594 7.31011719 -2.38367188 7.93273437 -2.87109375 8.57421875 C-3.24363281 9.04472656 -3.61617188 9.51523437 -4 10 C-4.33 9.01 -4.66 8.02 -5 7 C-4.00390625 5.17578125 -4.00390625 5.17578125 -2.5625 3.3125 C-2.08941406 2.68988281 -1.61632812 2.06726563 -1.12890625 1.42578125 C-0.75636719 0.95527344 -0.38382812 0.48476563 0 0 Z " fill="#7F74E7" transform="translate(318,287)"/>
<path d="M0 0 C-0.33 0.99 -0.66 1.98 -1 3 C-2.84765625 3.73046875 -2.84765625 3.73046875 -5.0625 4.1875 C-5.79597656 4.34605469 -6.52945313 4.50460938 -7.28515625 4.66796875 C-8.13400391 4.83232422 -8.13400391 4.83232422 -9 5 C-4.32258065 0 -4.32258065 0 0 0 Z " fill="#D0952A" transform="translate(87,197)"/>
<path d="M0 0 C0.33 0.66 0.66 1.32 1 2 C1.66 2 2.32 2 3 2 C3.66 4.97 4.32 7.94 5 11 C1.71779105 9.35889552 1.25429211 6.30677012 0 3 C0 2.01 0 1.02 0 0 Z " fill="#F4B52E" transform="translate(107,67)"/>
<path d="M0 0 C0.33 1.32 0.66 2.64 1 4 C-1.35438733 5.42944945 -2.48032433 6.08661261 -5.25 5.625 C-5.8275 5.41875 -6.405 5.2125 -7 5 C-6.01 5 -5.02 5 -4 5 C-4 4.34 -4 3.68 -4 3 C-2 1.375 -2 1.375 0 0 Z " fill="#776AE0" transform="translate(155,330)"/>
<path d="M0 0 C0.66 0 1.32 0 2 0 C2 1.98 2 3.96 2 6 C1.01 6.33 0.02 6.66 -1 7 C-1.04254356 5.00045254 -1.04080783 2.99958364 -1 1 C-0.67 0.67 -0.34 0.34 0 0 Z " fill="#EBAF2E" transform="translate(205,62)"/>
</svg>
